HIERARCHY
ROOT RootJoint
{
    OFFSET   0.000000   0.000000   0.000000
    CHANNELS 6 Xposition Yposition Zposition Xrotation Yrotation Zrotation
    JOINT pelvis_lowerback
    {
        OFFSET   0.000000   0.093605   0.000000
        CHANNELS 3 Xrotation Yrotation Zrotation
        JOINT lowerback_torso
        {
            OFFSET   0.000000   0.100000   0.000000
            CHANNELS 3 Xrotation Yrotation Zrotation
            JOINT torso_head
            {
                OFFSET   0.000000   0.282350   0.000000
                CHANNELS 3 Xrotation Yrotation Zrotation
                End Site
                {
                    OFFSET   0.000000   0.192650   0.000000
                }
            }
            JOINT rTorso_Clavicle
            {
                OFFSET  -0.001000   0.157500   0.000000
                CHANNELS 3 Xrotation Yrotation Zrotation
                JOINT rShoulder
                {
                    OFFSET  -0.117647   0.000000   0.000000
                    CHANNELS 3 Xrotation Yrotation Zrotation
                    JOINT rElbow
                    {
                        OFFSET  -0.245000   0.000000   0.000000
                        CHANNELS 3 Xrotation Yrotation Zrotation
                        JOINT rWrist
                        {
                            OFFSET  -0.240000   0.000000   0.000000
                            CHANNELS 3 Xrotation Yrotation Zrotation
                            End Site
                            {
                                OFFSET  -0.116353  -0.002500   0.000000
                            }
                        }
                    }
                }
            }
            JOINT lTorso_Clavicle
            {
                OFFSET   0.001000   0.157500   0.000000
                CHANNELS 3 Xrotation Yrotation Zrotation
                JOINT lShoulder
                {
                    OFFSET   0.117647   0.000000   0.000000
                    CHANNELS 3 Xrotation Yrotation Zrotation
                    JOINT lElbow
                    {
                        OFFSET   0.245000   0.000000   0.000000
                        CHANNELS 3 Xrotation Yrotation Zrotation
                        JOINT lWrist
                        {
                            OFFSET   0.240000   0.000000   0.000000
                            CHANNELS 3 Xrotation Yrotation Zrotation
                            End Site
                            {
                                OFFSET   0.116353  -0.002500   0.000000
                            }
                        }
                    }
                }
            }
        }
    }
    JOINT rHip
    {
        OFFSET  -0.100000  -0.051395   0.000000
        CHANNELS 3 Xrotation Yrotation Zrotation
        JOINT rKnee
        {
            OFFSET   0.000000  -0.410000   0.000000
            CHANNELS 3 Xrotation Yrotation Zrotation
            JOINT rAnkle
            {
                OFFSET   0.000000  -0.390000   0.000000
                CHANNELS 3 Xrotation Yrotation Zrotation
                JOINT rToeJoint
                {
                    OFFSET   0.000000  -0.050000   0.130000
                    CHANNELS 3 Xrotation Yrotation Zrotation
                    End Site
                    {
                        OFFSET  -0.010000   0.002000   0.060000
                    }
                }
            }
        }
    }
    JOINT lHip
    {
        OFFSET   0.100000  -0.051395   0.000000
        CHANNELS 3 Xrotation Yrotation Zrotation
        JOINT lKnee
        {
            OFFSET   0.000000  -0.410000   0.000000
            CHANNELS 3 Xrotation Yrotation Zrotation
            JOINT lAnkle
            {
                OFFSET   0.000000  -0.390000   0.000000
                CHANNELS 3 Xrotation Yrotation Zrotation
                JOINT lToeJoint
                {
                    OFFSET   0.000000  -0.050000   0.130000
                    CHANNELS 3 Xrotation Yrotation Zrotation
                    End Site
                    {
                        OFFSET   0.010000   0.002000   0.060000
                    }
                }
            }
        }
    }
}
MOTION
Frames: 10
Frame Time:   0.008333
 -2.092403   0.928181   4.581987  -5.520071  23.371401   4.139665   8.176634   5.488476   0.594568  13.075872  -0.033405   2.938995   8.629207   0.488940   0.399119  10.849341   8.656557  17.390219  14.613849  -1.401434  18.307552  -0.000212  14.861911   0.000484  18.740741  -2.985078 -41.022762   5.483092  -9.132400 -13.938150  12.414135   2.157497   4.019483  -0.000021 -32.691177   0.000251  14.048095  -1.350792  40.076752   1.404430   9.024938   3.834873   7.893711   0.000749  -0.001455   0.969969   3.674174  -5.468531 -13.906026   0.000133   0.000302 -31.326418  -8.945878  -0.233922  36.242448   0.000273   0.000141  -5.600778   0.791548  -1.949894  -4.693886  -0.000497  -0.000232
 -2.092807   0.925552   4.580524  -5.573471  23.615064   4.259941   7.992832   5.446417   0.499758  13.038275  -0.130125   3.010403   8.604029   0.480046   0.427749  10.826733   8.545623  17.319166  14.555642  -1.320855  18.442339  -0.000260  14.961550   0.000622  18.743276  -2.955803 -40.938714   5.514136  -9.063569 -13.788286  12.433744   2.029125   3.940514  -0.000062 -32.719454   0.000130  14.046051  -1.360597  40.032757   2.028728   9.199360   3.565719   6.848519  -0.000594  -0.004544  -0.357918   3.931422  -5.252343 -12.826919  -0.000523   0.004539 -31.576136  -8.866818  -0.393120  36.197213   0.000194   0.000015  -5.842200   0.936848  -1.846304  -4.745844  -0.000358  -0.000354
 -2.093373   0.923143   4.578634  -5.459236  23.808586   4.395005   7.815490   5.454540   0.322233  12.939909  -0.214432   3.016427   8.562768   0.479144   0.439187  10.804149   8.445329  17.216555  14.501114  -1.244743  18.556758  -0.000347  15.059916   0.000659  18.746422  -2.922258 -40.842685   5.530196  -9.020663 -13.584074  12.443987   1.898370   3.908460  -0.000102 -32.750382   0.000045  14.044899  -1.363336  40.018212   2.605251   9.367926   3.187154   5.526385  -0.001868  -0.007216  -1.465263   4.149362  -5.040827 -11.834555  -0.000690   0.006843 -31.943830  -8.732155  -0.635699  36.148889   0.000121  -0.000065  -6.072597   1.073381  -1.750767  -4.825519  -0.000249  -0.000498
 -2.094077   0.920816   4.576393  -5.265738  23.928393   4.531188   7.677090   5.494944   0.112891  12.838966  -0.275888   2.978987   8.521475   0.479580   0.440508  10.775869   8.365175  17.074671  14.446880  -1.171557  18.632293  -0.000450  15.153881   0.000622  18.742962  -2.897997 -40.786733   5.538069  -8.988366 -13.352106  12.447786   1.775717   3.907686  -0.000128 -32.779673   0.000005  14.044830  -1.356567  40.042483   3.094071   9.511729   2.774905   4.174311  -0.002682  -0.008385  -2.436068   4.331386  -4.867381 -10.926085  -0.000383   0.007579 -32.323817  -8.592642  -0.900706  36.103961   0.000071  -0.000087  -6.289146   1.200191  -1.661485  -4.907599  -0.000169  -0.000548
 -2.095218   0.921450   4.574352  -5.186863  24.126975   4.277765   7.647835   5.504481   0.237435  12.877020  -0.321791   3.100681   8.499625   0.479952   0.452158  10.706359   8.361426  17.015998  14.376592  -1.062523  18.684550  -0.000389  15.235706   0.000459  18.749937  -2.865725 -40.686008   5.532816  -9.025588 -13.306622  12.457485   1.610793   3.840876  -0.000059 -32.812040   0.000038  14.045582  -1.343170  40.093728   3.290816   9.498702   2.977071   3.268498  -0.001936  -0.007946  -2.278074   4.382911  -4.958138 -10.084018   0.000338   0.007412 -32.393630  -8.540504  -0.804032  36.009236  -0.000098  -0.000298  -6.487683   1.318866  -1.575741  -4.942716  -0.000148  -0.000564
 -2.096050   0.922610   4.572262  -5.003714  24.270215   4.242524   7.595887   5.526288   0.111822  12.879856  -0.373009   3.125736   8.484932   0.480756   0.468213  10.657900   8.334167  16.948112  14.319089  -0.959634  18.769849  -0.000361  15.329002   0.000320  18.755756  -2.835480 -40.593450   5.543177  -9.037146 -13.185742  12.473710   1.465550   3.794345   0.000001 -32.850547   0.000078  14.044423  -1.350196  40.063920   3.498392   9.508528   2.855388   2.314616  -0.001695  -0.007400  -2.469756   4.439910  -4.970719  -9.292444   0.000909   0.006813 -32.523494  -8.425144  -1.012285  35.972257  -0.000146  -0.000271  -6.675398   1.430416  -1.496646  -4.999806  -0.000169  -0.000571
 -2.096707   0.923877   4.570077  -4.748323  24.343102   4.279633   7.540177   5.569082  -0.085103  12.855025  -0.417297   3.079311   8.466300   0.481446   0.470741  10.623915   8.290399  16.842990  14.270364  -0.880733  18.835350  -0.000374  15.413884   0.000213  18.755965  -2.812166 -40.531991   5.553542  -9.030981 -13.026292  12.484784   1.345491   3.774224   0.000030 -32.883227   0.000106  14.043479  -1.356103  40.038945   3.685334   9.533223   2.596039   1.321392  -0.001710  -0.006538  -2.735643   4.500432  -4.975357  -8.588281   0.001501   0.005899 -32.681913  -8.293095  -1.319989  35.976151  -0.000110  -0.000217  -6.851387   1.532301  -1.423732  -5.065787  -0.000204  -0.000525
 -2.097302   0.924855   4.567902  -4.658724  24.302719   4.333510   7.612879   5.697788  -0.217810  12.875399  -0.452788   3.060925   8.395547   0.477871   0.424475  10.606458   8.238843  16.671402  14.301222  -0.762750  18.845801  -0.000407  15.499171   0.000046  18.781027  -2.840824 -40.549694   5.469435  -9.027355 -12.853321  12.475532   1.137842   3.688096   0.000020 -32.867413   0.000079  14.043672  -1.351187  40.057409   3.710488   9.610430   2.435762   0.969098  -0.001489  -0.005338  -3.334770   4.611814  -5.001597  -8.070439   0.001851   0.005116 -32.613399  -8.191644  -1.501667  35.876742  -0.000203  -0.000109  -7.012953   1.691830  -1.379941  -5.073442  -0.000169  -0.000427
 -2.097786   0.925610   4.565898  -4.639155  24.297391   4.391497   7.678914   5.792458  -0.313121  12.913996  -0.504615   3.061221   8.335172   0.474829   0.385007  10.594902   8.185074  16.491965  14.332273  -0.660526  18.839810  -0.000437  15.575950  -0.000044  18.804983  -2.875820 -40.586331   5.386649  -9.042746 -12.698092  12.466578   0.929227   3.607963   0.000018 -32.856942   0.000063  14.044206  -1.343441  40.087435   3.728190   9.677491   2.318538   0.763039  -0.001258  -0.004389  -3.854996   4.712986  -5.029191  -7.613162   0.001966   0.004564 -32.486012  -8.112475  -1.646423  35.776083  -0.000265  -0.000059  -7.163469   1.840977  -1.338194  -5.073686  -0.000135  -0.000342
 -2.098173   0.926219   4.564066  -4.655533  24.325637   4.448157   7.725910   5.859346  -0.386038  12.948542  -0.571687   3.073473   8.279485   0.471987   0.351692  10.587362   8.128690  16.321300  14.362596  -0.570922  18.830916  -0.000453  15.644967  -0.000078  18.826841  -2.911281 -40.628810   5.307581  -9.069818 -12.559620  12.458701   0.724658   3.532406   0.000017 -32.850799   0.000053  14.044818  -1.335336  40.119118   3.754050   9.739847   2.227365   0.617287  -0.001051  -0.003634  -4.317640   4.806216  -5.056846  -7.188421   0.001956   0.004195 -32.338019  -8.043019  -1.762792  35.683062  -0.000297  -0.000058  -7.303615   1.980258  -1.298788  -5.070942  -0.000107  -0.000270
